<?xml version="1.0" encoding="UTF-8" standalone="no"?>
<!-- Created with Inkscape (http://www.inkscape.org/) -->

<svg
   width="389.15109mm"
   height="60.540482mm"
   viewBox="0 0 389.15109 60.540484"
   version="1.1"
   id="svg1"
   xml:space="preserve"
   xmlns="http://www.w3.org/2000/svg"
   xmlns:svg="http://www.w3.org/2000/svg"><defs
     id="defs1" /><g
     id="layer1"
     transform="translate(100.45263,-172.20722)"><path
       id="path19"
       style="fill:#000000"
       d="m 176.42091,172.21127 c -1.61477,-0.0441 -2.29636,0.27512 -3.18637,0.79685 -1.35276,0.79299 -3.80191,3.28461 -4.82968,4.9134 -3.09108,4.89865 -5.79941,12.52645 -7.48843,21.08915 -0.65742,3.33287 -0.65532,10.59908 0.004,12.30313 0.98592,2.54912 2.87213,5.60713 7.90132,5.05447 0.62098,-0.0566 1.27154,-0.10437 1.93115,-0.15245 -1.67252,3.15682 -3.38892,5.70454 -5.0183,7.33392 -1.67274,1.67274 -2.93482,2.35545 -4.66224,2.52233 -1.66616,0.16096 -2.31376,-0.23129 -5.83944,-3.5388 -3.39839,-3.18811 -5.53641,-4.69811 -7.46208,-5.26997 -1.51902,-0.4511 -3.52959,-0.51141 -4.51859,-0.13539 -0.43419,0.16538 -0.67851,0.16655 -0.67851,0.003 0,-0.14043 3.11484,-5.80754 6.92154,-12.59354 3.80669,-6.78601 6.24337,-10.51458 7.25693,-13.31289 1.01356,-2.79831 0.74706,-1.94868 0.88676,-2.62671 0.12817,-0.62201 0.0483,-0.67073 -0.0982,-0.94671 -0.14647,-0.27599 -0.49784,-0.57121 -0.82838,-0.54881 -1.23537,0.0839 -1.66268,0.89613 -2.79156,2.45102 -0.607,0.83607 -1.37035,1.81797 -1.69653,2.18178 -0.32617,0.3638 -4.19988,7.26593 -8.60826,15.33808 -7.49051,13.71584 -8.15775,14.83823 -10.18956,17.14882 -2.53739,2.88555 -3.8893,5.20902 -3.76721,6.47454 0.0692,0.71716 0.27604,0.95598 1.26297,1.45366 v -5.2e-4 c 0.6493,0.32742 1.66133,0.59476 2.24896,0.59428 l 1.06815,-5.1e-4 0.76843,-1.91772 c 2.18939,-5.46377 4.69605,-8.82752 7.05021,-9.46143 1.49145,-0.4016 3.52289,-0.23178 4.88136,0.40772 0.61107,0.28765 2.34424,1.82451 4.10104,3.63647 4.36292,4.49992 6.46867,5.63035 10.14047,5.44412 2.45456,-0.12448 4.3863,-1.05106 6.41873,-3.07889 2.99518,-2.98841 5.50807,-6.86054 7.77678,-12.04991 0.43639,-0.0786 0.8694,-0.16969 1.31258,-0.27698 0.92743,-0.22453 1.84944,-0.50214 2.71973,-0.89349 0.73849,-0.33209 1.43339,-0.76147 2.09858,-1.22318 0.11846,-0.0822 0.2462,-0.17427 0.38034,-0.27337 -1.25523,1.87104 -2.54976,4.12399 -3.77393,6.58875 -1.84342,3.71153 -3.41013,7.9905 -3.41013,9.31416 0,1.04859 1.01048,2.94424 1.81178,3.39876 h 5.2e-4 c 0.50351,0.28556 1.26178,0.37122 2.68614,0.30282 3.01823,-0.14486 5.06555,-1.29824 10.15855,-5.72316 1.61605,-1.40406 3.32489,-2.8233 3.7977,-3.15382 l 0.8599,-0.60099 0.24701,0.65009 c 1.21448,3.19433 10.26226,5.53793 13.45964,3.32124 2.27434,-1.57676 3.264,-3.93504 3.3042,-3.29592 0.19717,3.13646 2.56841,8.66726 6.16706,8.88524 1.02535,0.0621 2.70002,-0.655 3.64836,-0.96893 0.46021,0.50725 0.59265,0.38721 1.0821,0.60048 v 5.2e-4 c 0.43927,0.1914 1.5133,0.35205 2.38642,0.35605 2.74436,0.0134 5.56201,-1.61864 9.04131,-5.23638 l 2.16266,-2.24844 0.18913,1.03663 c 0.47537,2.60848 2.20948,4.61032 4.3894,5.41311 1.06548,0.39238 3.90501,0.26608 6.12521,-1.45314 2.22021,-1.71921 3.82109,-5.03135 4.9444,-6.36344 3.43345,-4.07158 7.58619,-12.79969 10.07432,-12.40183 1.57375,0.25166 1.76936,0.86881 0.95498,3.01791 -1.62715,4.29397 -5.65852,11.79977 -5.84874,13.08809 -0.23014,1.55858 0.0561,1.83581 1.60197,1.55339 1.16039,-0.21199 1.34229,-0.34667 1.91668,-1.42265 2.2124,-4.14446 8.14387,-18.15409 12.79095,-16.56318 2.14848,1.55581 -4.84948,15.26762 -5.03314,16.5115 -0.23014,1.55858 -0.46805,1.83582 1.07782,1.5534 1.16039,-0.21199 3.07764,-0.83576 2.96285,-2.05004 -0.35367,-3.7414 6.11008,-19.00575 10.89522,-16.48475 1.06082,0.55888 -0.85859,3.5279 -2.36368,6.41098 -0.83936,1.60784 -1.83089,3.69145 -2.20348,4.63021 -0.85237,2.14752 -1.33713,5.87321 -0.94981,7.29981 0.684,2.5194 2.74472,3.64704 5.79809,2.83133 2.42291,-0.64728 2.69712,-1.9739 5.73271,-3.95045 0.4723,-0.30752 -0.23769,-1.99121 -4.50839,-0.25112 -5.51888,2.24866 -1.27328,-8.35553 1.1147,-11.80301 1.35351,-1.95402 3.13566,-6.10543 1.27508,-8.3059 -0.69419,-0.77697 -3.04901,-1.37109 -3.04901,-1.37109 -1.23027,0 -3.14122,-0.26828 -5.46146,1.04497 -1.63995,0.9282 -5.40709,-2.28911 -8.3514,-0.0998 -0.59712,0.44399 -1.31383,0.67741 -1.90582,1.11983 -0.28477,-0.68859 -0.61051,-1.28685 -0.87592,-1.52704 -1.26844,-1.14792 -4.42838,-0.51933 -6.38307,0.32814 -3.07325,1.33244 -5.09807,4.39426 -7.23625,6.9727 -2.37001,2.858 -3.84789,6.36904 -6.11074,9.31261 -1.50489,1.95759 -2.52784,6.04589 -4.94027,5.51956 -1.95164,-0.4258 -1.90675,-3.63196 -1.77353,-5.7242 0.10841,-1.70257 0.59705,-2.87681 3.28972,-7.90546 0.81784,-1.52735 1.28201,-2.75025 1.36271,-3.58996 0.11886,-1.23707 0.0882,-1.30376 -1.08366,-2.33526 -2.09235,-1.84175 -4.99543,-2.38298 -8.24394,-1.53685 -7.1691,1.86731 -14.09719,8.71665 -15.98972,17.22324 -0.46192,1.38547 0.13823,3.35639 0.46354,4.85758 -0.85099,0.2227 -2.64411,0.55352 -3.3905,0.0982 -1.8327,-1.11798 -2.15252,-3.9702 -2.02726,-6.11333 0.46436,-7.94515 3.14196,-10.12 10.10326,-21.6333 6.009,-9.93828 7.2707,-12.44738 7.2657,-14.45028 -0.0101,-3.98186 -5.27997,-0.19598 -6.39495,1.7079 -4.82843,8.24476 -5.12843,8.43025 -8.04189,16.35508 -1.26571,3.44284 -1.68918,5.15953 -4.24935,10.1508 0,0 -1.62927,3.92298 -2.94091,5.5578 -1.01509,1.2652 -2.16607,2.64381 -3.70572,3.15433 -1.71049,0.56717 -4.05695,0.49788 -5.3945,-0.35037 -1.56379,-0.99175 -1.93734,-1.98171 -1.5813,-4.19251 0.33279,-2.06639 0.6231,-2.72244 3.58738,-8.10596 2.31601,-4.20619 3.32434,-6.72135 3.32434,-8.29459 0,-0.73999 -0.25849,-0.75502 -1.56321,-0.0894 -1.35135,0.68941 -3.57266,3.1565 -7.61349,8.45685 -1.83983,2.4133 -4.29236,5.4938 -5.45031,6.84558 -3.53303,4.12445 -7.87318,7.32207 -10.70684,7.88789 -0.79669,0.15908 -0.8599,0.12026 -0.8599,-0.52813 0,-1.16215 5.36007,-11.44216 6.90501,-13.24312 0.74256,-0.8656 1.45708,-1.85597 1.58802,-2.20038 0.64286,-1.69085 -0.13312,-2.97295 -1.79938,-2.97295 -0.8442,0 -1.18304,0.20976 -2.45824,1.52135 -0.48345,0.49725 -0.99071,1.09077 -1.51257,1.7663 -0.42659,0.232 -0.79467,0.42823 -0.93431,0.45786 -0.40246,0.0854 -3.23906,1.31024 -3.52589,1.37614 -0.57366,0.13173 -1.34927,0.45122 -2.42052,0.61908 -0.0387,0.006 -0.0778,0.0122 -0.11679,0.0181 0.61154,-1.53338 1.20672,-3.17211 1.79059,-4.92528 3.96665,-11.91056 5.9858,-23.19683 5.03277,-28.13213 -0.36089,-1.86893 -2.3666,-6.11027 -3.49591,-6.98356 -1.12931,-0.87329 -1.54163,-1.33566 -3.1564,-1.37976 z m -0.58756,4.72478 c 0.86653,-0.0529 1.71212,0.12417 2.33267,0.54415 2.58943,1.75253 2.96698,5.84377 1.27848,13.85756 -1.69536,8.04637 -4.47711,16.20994 -7.51531,22.54281 -1.09668,-0.0138 -2.2291,-0.073 -3.37137,-0.1633 -2.68509,-0.21238 -3.31331,-1.31238 -3.8256,-2.98587 -0.51228,-1.67349 -0.54739,-4.02796 -0.63149,-4.97385 -0.39491,-4.4409 2.45685,-16.92626 5.10718,-22.35885 1.14129,-2.3394 2.9168,-4.73597 4.16771,-5.62601 0.70393,-0.50085 1.59121,-0.78373 2.45773,-0.83664 z m 62.00086,35.70118 c 0.59076,0.0326 0.63407,0.42039 0.63407,1.28261 0,1.67306 -0.36894,2.70613 -1.71462,4.80177 -2.08597,3.24851 -5.95085,6.64549 -9.52293,8.37004 -1.01454,0.48981 -2.05894,0.89038 -2.32131,0.89038 -1.35038,0 -1.24145,-3.82547 0.19276,-6.76548 1.97359,-4.04565 5.55359,-6.89922 10.12238,-8.06772 1.35938,-0.34767 2.15016,-0.53693 2.60965,-0.5116 z" /><path
       id="path16"
       style="fill:#000000"
       d="m -53.742456,173.49917 c -0.279007,0.0101 -0.817531,0.32813 -1.121379,0.40876 -1.87691,0.49813 -3.692136,1.2702 -5.386751,2.21847 -5.870872,3.2852 -12.497706,8.08547 -16.311666,11.88558 -2.27555,2.26729 -2.53723,2.6535 -5.4684,8.06979 -1.69318,3.12869 -5.11473,9.66728 -7.60367,14.52987 -2.488948,4.86259 -4.657081,9 -4.818311,9.19427 -0.85868,1.03464 -1.898825,-0.0361 -2.742985,-2.82412 -0.26399,-0.87191 -0.612793,-1.58543 -0.775663,-1.58543 -0.38972,0 -1.488099,0.77185 -2.058789,1.44694 -0.65247,0.77182 -0.58529,1.42407 0.454236,4.41058 0.61985,1.78079 0.926042,3.1374 0.926042,4.10311 0,1.61319 0.388583,2.53975 1.497583,3.56929 1.55067,1.43956 3.487179,1.97227 8.556583,2.35438 5.05866,0.3813 7.938476,-0.33029 11.879378,-0.79892 2.735302,-0.32526 5.476032,-0.7143 8.14524,-1.39474 1.594774,-0.40654 3.189445,-0.88126 4.671032,-1.59784 2.399273,-1.16042 4.682694,-2.61226 6.725688,-4.32377 4.959436,-4.15475 10.943177,-11.2622 13.194027,-14.2353 1.49756,-1.97809 2.247424,-2.17496 2.843754,-0.74776 0.49853,1.19326 0.49,3.741 -0.01757,5.17953 -0.22057,0.62516 -1.343515,2.75329 -2.495455,4.72942 -2.58807,4.43976 -3.034682,5.73733 -2.868042,8.33386 0.19377,3.01931 1.334313,4.46776 3.877283,4.92477 2.22426,0.39973 6.281102,-0.45741 8.179345,-1.99471 4.622691,-3.7437 2.665471,-2.12546 2.665471,-2.12546 0,0 2.090008,1.34224 3.265433,1.68879 2.611621,0.76997 5.440921,1.20547 8.13077,0.78341 1.607246,-0.25219 2.870522,-0.89015 4.481381,-1.93321 0,0 1.614009,-0.8436 1.88774,-0.89814 0.596077,1.97733 2.001334,6.23695 5.0487871,3.65404 0.4199,-0.44951 2.1925676,-3.64647 3.9387776,-7.10396 3.42402,-6.77951 5.05758676,-9.29402 7.1969768,-11.07787 1.50816,-1.25752 2.5152672,-1.75269 4.1129272,-2.02262 1.60114,-0.27051 2.0090392,0.26629 1.8830892,2.48047 -0.0852,1.49835 -0.3525574,2.27159 -1.9264974,5.56969 -1.66294,3.48463 -1.8380341,4.01185 -1.9445841,5.85235 -0.18182,3.14097 0.6255377,4.87932 2.7042277,5.82342 2.06348,0.93718 6.8592459,0.47484 9.6278359,-0.92811 0.73462,-0.37226 1.414172,-0.80429 1.510502,-0.96015 0.0993,-0.16072 0.495193,0.22171 0.914673,0.88315 1.38257,2.1801 4.091825,3.17241 7.828463,1.44746 l 2.243274,-1.0356 5.213118,-3.69744 c 3.13591,-2.61819 5.78458,-4.66483 5.885946,-4.54805 0.101366,0.11678 0.456202,0.90176 0.789099,1.74408 1.653359,4.18347 6.099947,5.02693 9.900171,5.17281 1.781417,0.0684 2.04327,0.0931 5.288566,-0.79685 0.383397,-0.10513 0.689034,-0.18907 0.930176,-0.25528 h 5.17e-4 l 0.534851,0.95395 c 0.749943,1.33754 1.035947,1.91672 1.925463,2.45566 1.135816,0.68817 2.58923,0.74956 3.917074,0.72761 1.72212,-0.0285 3.572376,-0.21979 5.046204,-1.11105 2.449084,-1.48102 4.877461,-3.81119 6.362402,-6.46782 0.742472,-1.32832 1.660802,-2.89049 2.337325,-4.24884 0.676523,-1.35836 1.111105,-2.513 2.446362,-3.02772 0.484886,-0.18692 -0.207255,0.13145 1.978174,-0.26716 0.895115,-0.16327 2.699141,-0.89245 4.520138,-1.72031 -0.194422,0.30436 -0.396608,0.62077 -0.606682,0.94981 -7.001136,10.96604 -7.185366,11.30853 -7.018693,13.04313 0.107918,1.12312 0.286021,1.48814 1.085205,2.22054 0.775345,0.71055 1.173613,0.87591 2.104782,0.87591 1.73655,0 2.352447,-0.87222 6.169132,-8.73435 2.508124,-5.16658 4.033177,-7.565 6.110221,-9.60923 1.642586,-1.61663 3.005765,-2.3867 4.734078,-2.67529 1.63221,-0.27254 2.03697,0.25347 1.90738,2.4784 -0.0843,1.44749 -0.35706,2.28274 -1.623676,4.97283 -2.046186,4.34578 -2.299167,5.13892 -2.292367,7.18509 0.01265,3.81661 1.827901,5.55648 5.814633,5.57278 5.24936,0.0214 9.78958,-2.48285 9.78958,-5.39967 0,-0.56565 -0.0998,-0.65867 -0.59531,-0.55397 -3.99176,0.8434 -6.87738,1.25422 -7.71219,1.09761 -1.20295,-0.22567 -1.48208,-0.83868 -1.48208,-3.25458 0,-1.41437 0.27381,-2.55063 1.45521,-6.03994 1.81357,-5.35647 1.93701,-7.04929 0.64337,-8.83512 -0.963,-1.32938 -2.81199,-2.26885 -3.99924,-2.0314 -0.42808,0.0856 -1.748444,0.75269 -2.933671,1.48208 -1.185227,0.7294 -2.344904,1.32601 -2.577103,1.32601 -0.232198,0 -0.83104,-0.4219 -1.331185,-0.93792 -0.752079,-0.7759 -1.069536,-0.9247 -1.833997,-0.8599 -0.691725,0.0586 -3.371133,2.24849 -4.994527,3.45922 -0.741417,0.55295 -1.374256,1.25559 -2.164726,1.73581 -0.650687,0.3953 -1.333665,0.82964 -2.089278,0.92294 -1.174358,0.145 -2.19657,0.93474 -3.498494,-0.60151 -1.068286,-1.32453 -0.985058,-3.3386 -2.023649,-4.68654 -0.995686,-1.29225 -2.227495,-2.85085 -3.849895,-3.02152 -2.3692,-0.24923 -3.315221,0.45908 -6.417179,3.14606 -4.929904,4.27038 -5.836099,7.37503 -8.859408,13.37852 -0.633993,1.25894 -0.623495,1.47643 -1.083654,2.12493 -0.528767,0.74519 -1.084837,1.55723 -1.893942,1.98179 -1.25769,0.65995 -2.797119,0.84063 -4.207495,0.67283 -1.89987,-0.22603 -4.045814,-0.30142 -5.296834,-2.21072 -1.25102,-1.9093 0.06749,-7.21266 6.280237,-16.80569 2.775632,-4.28581 4.527967,-7.44543 8.350394,-15.05748 2.660631,-5.29842 4.633249,-8.89489 4.837431,-10.06399 0.204182,-1.1691 -0.08087,-1.43364 -0.532784,-1.92029 -0.454016,-0.48892 -1.024681,-0.89185 -1.884639,-0.67645 -0.859956,0.21579 -1.406749,0.79804 -1.623674,1.05265 -0.216965,0.25466 -1.855396,2.77978 -3.849894,5.76296 -3.175596,4.74975 -7.303287,11.99647 -10.135299,17.79323 -1.022445,2.09281 -1.173373,2.13378 -4.619356,1.2485 -1.498115,-0.38493 -2.506426,-0.49197 -3.548104,-0.3762 -6.04636,0.67198 -12.942744,4.63178 -16.797424,9.64488 -2.29716,2.98749 -3.416422,5.4777 -3.856612,8.58139 -0.14404,1.01567 -0.387266,1.9243 -0.540536,2.019 -0.64545,0.39891 -4.506008,3.75051 -6.570658,2.61328 -2.6657729,-2.32468 -0.392392,-8.22238 0.366903,-11.097 0.79379,-3.20788 1.942054,-8.09749 -0.594796,-9.89604 -1.7343098,-1.22958 -2.8772215,-1.11339 -5.6167115,0.57103 -1.24125,0.76321 -1.720902,1.0443 -2.6603027,1.38751 -1.2241258,0.44723 -2.6271548,0.31819 -3.8157878,0.85266 -1.0624294,0.47772 -1.9934788,1.23822 -2.8334188,2.04536 -0.9052471,0.86989 -1.6051202,1.93465 -2.3244059,2.96364 -1.7608284,2.51899 -2.9143812,5.45592 -4.8586183,7.83621 -0.785795,0.96203 -1.696415,1.84044 -2.711462,2.55644 -1.479751,1.0438 -3.114426,1.91447 -4.836914,2.47323 -1.785059,0.57906 -3.741245,1.32036 -5.562452,0.86765 -1.486254,-0.36945 -3.52848,-1.22728 -3.679878,-2.75126 -0.174048,-1.75198 1.74896,-2.53601 3.525366,-3.93309 3.720843,-2.92631 6.403705,-4.26717 7.553027,-7.66516 0.681902,-2.01605 1.170389,-5.53127 -0.800468,-6.3345 -6.302365,-2.56856 -14.884582,5.98051 -15.989721,12.69586 -0.467773,2.84242 0.922183,4.15207 0.413928,4.93459 -0.952531,1.46653 -2.93597,4.38482 -5.679757,3.96565 -1.337651,-0.20436 -2.957873,-1.45784 -2.942973,-4.34909 0.0101,-1.95773 0.815707,-4.49154 3.202906,-10.07277 1.89122,-4.42166 1.972708,-4.69574 1.808158,-6.08542 -0.27436,-2.31706 -0.873699,-4.14708 -2.439128,-7.45174 -1.50692,-3.18113 -1.70304,-3.38456 -3.28352,-3.39256 -0.85684,-0.004 -1.069789,0.27076 -1.632459,2.11305 -0.78598,2.57345 -4.724322,9.28835 -7.245552,12.35377 -5.06929,6.16343 -5.123954,5.96967 -7.983492,8.65994 -1.766509,1.66194 -3.513638,3.43079 -5.640483,4.59661 -2.132379,1.16886 -4.74604,1.79382 -6.926709,2.28824 2.181914,-1.46196 6.505724,-3.9952 8.417574,-5.97845 4.84341,-5.02427 7.171568,-9.86032 7.147368,-14.84612 -0.0164,-3.37966 -1.306822,-6.4267 -4.417302,-10.43089 -0.66975,-0.86218 -1.217496,-1.71769 -1.217496,-1.90066 0,-0.18297 1.041794,-1.21673 2.315104,-2.29753 6.41091,-5.44162 6.72534,-9.21374 8.366414,-14.56759 0.170374,-0.55583 0.219288,-1.16526 0.128158,-1.73943 -0.08478,-0.53419 -0.239844,-1.11156 -0.614433,-1.50172 -0.301231,-0.31375 -0.756454,-0.47742 -1.186491,-0.5426 -0.144147,-0.0219 -0.435116,0.12251 -0.435116,-0.0232 0,-0.12298 -0.06962,-0.16622 -0.1788,-0.16227 z m -2.428792,4.85552 c 0.25722,0 0.0986,1.81962 -0.287838,3.30316 -1.51272,5.80773 -8.741392,11.51368 -15.478642,12.21786 -1.60266,0.16751 -2.158209,0.52413 -2.483569,1.59318 -0.12839,0.42184 0.0297,0.80723 0.586527,1.43041 0.74649,0.83546 0.835555,0.86084 4.311365,1.21439 4.01393,0.40828 5.852587,1.08475 6.986137,2.5709 1.69574,2.22323 1.964018,5.86971 0.677478,9.21081 -3.838446,9.96832 -8.560658,14.08853 -17.609778,16.36903 -3.066438,0.77278 -9.336676,0.83429 -10.351306,0.39274 -2.02469,-0.88111 -1.85471,-1.5069 2.96416,-10.91665 6.5188,-12.7292 10.56839,-20.32105 11.94294,-22.38933 3.78105,-5.68933 9.743226,-11.36922 14.363982,-13.68392 1.14624,-0.57419 3.609464,-1.31258 4.378544,-1.31258 z m 96.446309,30.72732 c 0.99153,-0.0218 1.786266,0.11646 2.25671,0.44597 1.328886,0.93079 0.95768,1.48836 -4.769735,7.16029 -6.02518,5.96682 -8.925616,8.3139 -11.710396,9.47746 -1.66279,0.69476 -2.450687,0.55732 -2.963127,-0.51728 -0.61743,-1.29476 -0.193251,-4.76779 0.840259,-6.8802 0.89831,-1.83609 3.426939,-4.58581 5.532479,-6.01566 3.09144,-2.09936 7.839224,-3.60511 10.81381,-3.67058 z m 30.862716,1.125 c 0.08882,0.002 0.177008,0.0113 0.264066,0.03 0.554919,0.11898 0.933125,0.70534 1.203028,1.20458 0.323886,0.59909 0.176274,1.3634 0.418579,1.99988 0.31756,0.83415 1.225812,0.69843 1.333252,2.32182 0.06032,0.91148 -0.196021,1.72916 -0.75706,2.63395 -1.288516,2.078 -3.361502,5.45935 -5.360913,6.39961 -3.170882,1.49115 -5.27513,1.15166 -5.27513,-0.85111 0,-2.98815 2.869021,-9.71152 6.44095,-12.94908 0.461793,-0.41857 1.111466,-0.8007 1.733228,-0.78962 z m -93.136951,0.22066 c 0.218053,0.01 0.418792,0.0934 0.592729,0.27595 2.032683,2.13307 -2.151587,5.65677 -4.192509,7.78196 -1.028336,1.0708 -2.650042,3.16704 -3.832324,2.26911 -0.882503,-0.67025 0.398504,-2.20449 0.864029,-3.21014 0.867934,-1.87496 1.949374,-3.76007 3.521233,-5.10098 0.831207,-0.70909 2.101946,-2.05744 3.046842,-2.0159 z" /></g></svg>
